<svg xmlns="http://www.w3.org/2000/svg" viewBox="0 0 69.757 64.636">
  <defs>
    <style>
      .cls-1 {
        fill: #2699fb;
      }
    </style>
  </defs>
  <g id="ANNOUNCEMENT" transform="translate(-34.576 -529.908)">
    <g id="Group_47" data-name="Group 47" transform="translate(34.576 529.908)">
      <g id="Group_42" data-name="Group 42" transform="translate(24.727 2.817)">
        <path id="Path_197" data-name="Path 197" class="cls-1" d="M69.8,29.4l5.137,12.364,29.652,2.232L89.745,8ZM87.69,16.183,75.185,28.937a.685.685,0,0,1-.992,0,.685.685,0,0,1,0-.992L86.7,15.191a.685.685,0,0,1,.992,0A.717.717,0,0,1,87.69,16.183Z" transform="translate(-69.8 -8)"/>
      </g>
      <g id="Group_43" data-name="Group 43" transform="translate(14.418 42.353)">
        <path id="Path_198" data-name="Path 198" class="cls-1" d="M40.7,123.78l7.475,18.1,6.518-1.7L50.8,119.6Z" transform="translate(-40.7 -119.6)"/>
      </g>
      <g id="Group_44" data-name="Group 44" transform="translate(0 34.417)">
        <path id="Path_199" data-name="Path 199" class="cls-1" d="M3.33,97.2A5.881,5.881,0,0,0,0,102.514a5.942,5.942,0,0,0,5.952,5.952,6.45,6.45,0,0,0,1.842-.283L3.507,97.838A2.151,2.151,0,0,1,3.33,97.2Z" transform="translate(0 -97.2)"/>
      </g>
      <g id="Group_45" data-name="Group 45" transform="translate(4.009 24.134)">
        <path id="Path_200" data-name="Path 200" class="cls-1" d="M31.4,69.812a2.663,2.663,0,0,0-3.436-1.452L12.941,74.594a2.6,2.6,0,0,0-1.594,2.8,2.15,2.15,0,0,0,.177.638l4.251,10.344.248.638a2.617,2.617,0,0,0,3.436,1.417l15.021-6.2A2.617,2.617,0,0,0,35.9,80.794Z" transform="translate(-11.317 -68.172)"/>
      </g>
      <g id="Group_46" data-name="Group 46" transform="translate(45.752)">
        <path id="Path_201" data-name="Path 201" class="cls-1" d="M147.588,36.8,132.532,1.129a1.8,1.8,0,0,0-2.3-.957,1.8,1.8,0,0,0-.956,2.3l15.056,35.709a1.8,1.8,0,0,0,1.63,1.1,1.535,1.535,0,0,0,.673-.142A1.781,1.781,0,0,0,147.588,36.8Z" transform="translate(-129.148 -0.048)"/>
      </g>
    </g>
    <g id="Group_48" data-name="Group 48" transform="translate(90.967 533.568)">
      <path id="Path_202" data-name="Path 202" class="cls-1" d="M159.895,17.472a.681.681,0,0,1-.425-.142.693.693,0,0,1-.142-.992l4.251-5.668a.709.709,0,1,1,1.134.85l-4.251,5.668A.644.644,0,0,1,159.895,17.472Z" transform="translate(-159.179 -10.379)"/>
    </g>
    <g id="Group_49" data-name="Group 49" transform="translate(93.693 543.699)">
      <path id="Path_203" data-name="Path 203" class="cls-1" d="M167.592,42.739a.727.727,0,0,1-.673-.461.737.737,0,0,1,.425-.921l6.341-2.338a.717.717,0,0,1,.5,1.346L167.84,42.7A.692.692,0,0,1,167.592,42.739Z" transform="translate(-166.875 -38.975)"/>
    </g>
    <g id="Group_50" data-name="Group 50" transform="translate(96.852 553.581)">
      <path id="Path_204" data-name="Path 204" class="cls-1" d="M182.56,69.183h-.106L176.4,68.3a.744.744,0,0,1-.6-.815.7.7,0,0,1,.815-.6l6.058.886a.744.744,0,0,1,.6.815A.721.721,0,0,1,182.56,69.183Z" transform="translate(-175.791 -66.869)"/>
    </g>
  </g>
</svg>
