<svg xmlns="http://www.w3.org/2000/svg" viewBox="0 0 78.067 65.483">
  <defs>
    <style>
      .cls-1 {
        fill: #2699fb;
      }

      .cls-2 {
        fill: none;
      }
    </style>
  </defs>
  <g id="ATTENDANCE" transform="translate(-26.267 -317.26)">
    <g id="Group_35" data-name="Group 35" transform="translate(49.723 345.02)">
      <path id="Path_156" data-name="Path 156" class="cls-1" d="M75.954,59.343,57.793,74.077A2.815,2.815,0,0,1,56,74.691a2.785,2.785,0,0,1-2-.819l-7.213-7.213a2.78,2.78,0,0,1,0-3.99,2.873,2.873,0,0,1,3.99,0l5.423,5.474L72.424,54.995a2.8,2.8,0,1,1,3.53,4.348Z" transform="translate(-45.95 -54.361)"/>
    </g>
    <g id="Group_36" data-name="Group 36" transform="translate(26.267 317.26)">
      <path id="Path_157" data-name="Path 157" class="cls-2" d="M37.5,30.3v0Z" transform="translate(-18.367 -14.849)"/>
      <path id="Path_158" data-name="Path 158" class="cls-2" d="M38.779,33A2.7,2.7,0,0,1,37.5,30.8,2.973,2.973,0,0,0,38.779,33Z" transform="translate(-18.367 -15.093)"/>
      <path id="Path_159" data-name="Path 159" class="cls-2" d="M44.1,35.753c.153-.051.358-.1.512-.153C44.458,35.651,44.3,35.7,44.1,35.753Z" transform="translate(-21.591 -17.438)"/>
      <path id="Path_160" data-name="Path 160" class="cls-2" d="M103.5,29.556v0Z" transform="translate(-50.603 -14.36)"/>
      <path id="Path_161" data-name="Path 161" class="cls-2" d="M103.5,29.8a2.943,2.943,0,0,0,1.228,2.2A2.858,2.858,0,0,1,103.5,29.8Z" transform="translate(-50.603 -14.605)"/>
      <path id="Path_162" data-name="Path 162" class="cls-2" d="M76.363,55.384a2.822,2.822,0,0,1-.409,3.939L57.793,74.056A2.815,2.815,0,0,1,56,74.67a2.785,2.785,0,0,1-2-.819l-7.213-7.213a2.78,2.78,0,0,1,0-3.99,2.873,2.873,0,0,1,3.99,0l5.423,5.474L72.424,54.975A2.733,2.733,0,0,1,76.363,55.384Z" transform="translate(-22.494 -26.581)"/>
      <path id="Path_163" data-name="Path 163" class="cls-1" d="M76.556,14.314A2.683,2.683,0,0,1,74.1,17.127H54.456A2.648,2.648,0,0,1,52,14.314a2.977,2.977,0,0,1,.716-2,2.342,2.342,0,0,1,1.739-.819h19.7A2.644,2.644,0,0,1,76.556,14.314Z" transform="translate(-25.449 -5.667)"/>
      <path id="Path_164" data-name="Path 164" class="cls-1" d="M78.167,22.348V60.2c0,6.037-5.218,10.9-11.664,10.9H11.764C5.318,71.1.1,66.241.1,60.2V22.348c0-6.037,5.218-10.9,11.664-10.9h3.121A2.92,2.92,0,0,1,17.9,14.265a2.871,2.871,0,0,1-.87,2,3.107,3.107,0,0,1-2.149.819H11.2a8.676,8.676,0,0,0-1.125.2,6.3,6.3,0,0,0-1.944.972,5.5,5.5,0,0,0-1.586,2,6.018,6.018,0,0,0-.358,1.023,3.83,3.83,0,0,0-.1,1.074V60.2a7.632,7.632,0,0,0,.1,1.074A4.072,4.072,0,0,0,6.546,62.3a4.859,4.859,0,0,0,1.586,1.944,5.35,5.35,0,0,0,1.944.972,7.339,7.339,0,0,0,1.125.2H66.5a5.491,5.491,0,0,0,5.679-5.269V22.3A5.459,5.459,0,0,0,66.5,17.027H63.024a2.92,2.92,0,0,1-3.018-2.814,2.871,2.871,0,0,1,.87-2,3.107,3.107,0,0,1,2.149-.819H66.5C72.949,11.451,78.167,16.311,78.167,22.348Z" transform="translate(-0.1 -5.618)"/>
      <path id="Path_165" data-name="Path 165" class="cls-1" d="M109.127,2.861V15.139a2.907,2.907,0,0,1-.563,1.688c-.1.1-.153.2-.256.307a1.356,1.356,0,0,1-.307.256,2.683,2.683,0,0,1-1.688.563,1.918,1.918,0,0,1-.563-.051c-.2-.051-.358-.1-.512-.153-.1-.051-.153-.1-.256-.1h0c-.051-.051-.153-.051-.2-.1h-.051a2.777,2.777,0,0,1-1.228-2.2V2.912A2.839,2.839,0,0,1,106.314.1,2.762,2.762,0,0,1,109.127,2.861Z" transform="translate(-50.603 -0.097)"/>
      <path id="Path_166" data-name="Path 166" class="cls-1" d="M43.176,3.9V16.233a2.973,2.973,0,0,1-1.279,2.2c-.051.051-.1.051-.153.1-.1.051-.153.1-.256.1a1.949,1.949,0,0,1-.512.153,3.033,3.033,0,0,1-1.177,0c-.2-.051-.358-.1-.512-.153-.1-.051-.153-.1-.256-.1-.051-.051-.1-.051-.153-.1a2.7,2.7,0,0,1-1.279-2.2V3.8A2.837,2.837,0,0,1,40.669.988,2.927,2.927,0,0,1,43.176,3.9Z" transform="translate(-18.416 -0.527)"/>
    </g>
  </g>
</svg>
