<svg xmlns="http://www.w3.org/2000/svg" viewBox="0 0 78.067 65.483">
  <defs>
    <style>
      .cls-1 {
        fill: none;
      }

      .cls-2 {
        fill: #2699fb;
      }
    </style>
  </defs>
  <g id="CALENDER" transform="translate(-26.267 -737.26)">
    <path id="Path_207" data-name="Path 207" class="cls-1" d="M37.5,30.3v0Z" transform="translate(7.9 722.411)"/>
    <path id="Path_208" data-name="Path 208" class="cls-1" d="M38.779,33A2.7,2.7,0,0,1,37.5,30.8,2.973,2.973,0,0,0,38.779,33Z" transform="translate(7.9 722.167)"/>
    <path id="Path_209" data-name="Path 209" class="cls-1" d="M44.1,35.753c.153-.051.358-.1.512-.153C44.458,35.651,44.3,35.7,44.1,35.753Z" transform="translate(4.676 719.822)"/>
    <path id="Path_210" data-name="Path 210" class="cls-1" d="M103.5,29.556v0Z" transform="translate(-24.336 722.899)"/>
    <path id="Path_211" data-name="Path 211" class="cls-1" d="M103.5,29.8a2.943,2.943,0,0,0,1.228,2.2A2.858,2.858,0,0,1,103.5,29.8Z" transform="translate(-24.336 722.655)"/>
    <path id="Path_212" data-name="Path 212" class="cls-2" d="M76.556,14.314A2.683,2.683,0,0,1,74.1,17.127H54.456A2.648,2.648,0,0,1,52,14.314a2.977,2.977,0,0,1,.716-2,2.342,2.342,0,0,1,1.739-.819h19.7A2.644,2.644,0,0,1,76.556,14.314Z" transform="translate(0.818 731.593)"/>
    <path id="Path_213" data-name="Path 213" class="cls-2" d="M78.167,22.348V60.2c0,6.037-5.218,10.9-11.664,10.9H11.764C5.318,71.1.1,66.241.1,60.2V22.348c0-6.037,5.218-10.9,11.664-10.9h3.121A2.92,2.92,0,0,1,17.9,14.265a2.871,2.871,0,0,1-.87,2,3.107,3.107,0,0,1-2.149.819H11.2a8.676,8.676,0,0,0-1.125.2,6.3,6.3,0,0,0-1.944.972,5.5,5.5,0,0,0-1.586,2,6.018,6.018,0,0,0-.358,1.023,3.83,3.83,0,0,0-.1,1.074V60.2a7.632,7.632,0,0,0,.1,1.074A4.072,4.072,0,0,0,6.546,62.3a4.859,4.859,0,0,0,1.586,1.944,5.35,5.35,0,0,0,1.944.972,7.339,7.339,0,0,0,1.125.2H66.5a5.491,5.491,0,0,0,5.679-5.269V22.3A5.459,5.459,0,0,0,66.5,17.027H63.024a2.92,2.92,0,0,1-3.018-2.814,2.871,2.871,0,0,1,.87-2,3.107,3.107,0,0,1,2.149-.819H66.5C72.949,11.451,78.167,16.311,78.167,22.348Z" transform="translate(26.167 731.642)"/>
    <path id="Path_214" data-name="Path 214" class="cls-2" d="M109.127,2.861V15.139a2.907,2.907,0,0,1-.563,1.688c-.1.1-.153.2-.256.307a1.356,1.356,0,0,1-.307.256,2.683,2.683,0,0,1-1.688.563,1.918,1.918,0,0,1-.563-.051c-.2-.051-.358-.1-.512-.153-.1-.051-.153-.1-.256-.1h0c-.051-.051-.153-.051-.2-.1h-.051a2.777,2.777,0,0,1-1.228-2.2V2.912A2.839,2.839,0,0,1,106.314.1,2.762,2.762,0,0,1,109.127,2.861Z" transform="translate(-24.336 737.163)"/>
    <path id="Path_215" data-name="Path 215" class="cls-2" d="M43.176,3.9V16.233a2.973,2.973,0,0,1-1.279,2.2c-.051.051-.1.051-.153.1-.1.051-.153.1-.256.1a1.949,1.949,0,0,1-.512.153,3.033,3.033,0,0,1-1.177,0c-.2-.051-.358-.1-.512-.153-.1-.051-.153-.1-.256-.1-.051-.051-.1-.051-.153-.1a2.7,2.7,0,0,1-1.279-2.2V3.8A2.837,2.837,0,0,1,40.669.988,2.927,2.927,0,0,1,43.176,3.9Z" transform="translate(7.851 736.733)"/>
    <path id="Path_216" data-name="Path 216" class="cls-2" d="M106.032,50.164h3.939a3.646,3.646,0,0,0,3.632-3.632h0a3.646,3.646,0,0,0-3.632-3.632h-3.939a3.646,3.646,0,0,0-3.632,3.632h0A3.646,3.646,0,0,0,106.032,50.164Z" transform="translate(-23.799 716.257)"/>
    <path id="Path_217" data-name="Path 217" class="cls-2" d="M106.032,72.564h3.939a3.646,3.646,0,0,0,3.632-3.632h0a3.646,3.646,0,0,0-3.632-3.632h-3.939a3.646,3.646,0,0,0-3.632,3.632h0A3.646,3.646,0,0,0,106.032,72.564Z" transform="translate(-23.799 705.316)"/>
    <path id="Path_218" data-name="Path 218" class="cls-2" d="M106.032,94.864h3.939a3.646,3.646,0,0,0,3.632-3.632h0a3.646,3.646,0,0,0-3.632-3.632h-3.939a3.646,3.646,0,0,0-3.632,3.632h0A3.646,3.646,0,0,0,106.032,94.864Z" transform="translate(-23.799 694.424)"/>
    <path id="Path_219" data-name="Path 219" class="cls-2" d="M69.031,50.164H72.97A3.646,3.646,0,0,0,76.6,46.532h0A3.646,3.646,0,0,0,72.97,42.9H69.031A3.646,3.646,0,0,0,65.4,46.532h0A3.582,3.582,0,0,0,69.031,50.164Z" transform="translate(-5.726 716.257)"/>
    <path id="Path_220" data-name="Path 220" class="cls-2" d="M69.031,72.564H72.97A3.646,3.646,0,0,0,76.6,68.932h0A3.646,3.646,0,0,0,72.97,65.3H69.031A3.646,3.646,0,0,0,65.4,68.932h0A3.582,3.582,0,0,0,69.031,72.564Z" transform="translate(-5.726 705.316)"/>
    <path id="Path_221" data-name="Path 221" class="cls-2" d="M69.031,94.864H72.97A3.646,3.646,0,0,0,76.6,91.232h0A3.646,3.646,0,0,0,72.97,87.6H69.031A3.646,3.646,0,0,0,65.4,91.232h0A3.582,3.582,0,0,0,69.031,94.864Z" transform="translate(-5.726 694.424)"/>
    <path id="Path_222" data-name="Path 222" class="cls-2" d="M31.932,50.164h3.939A3.646,3.646,0,0,0,39.5,46.532h0A3.646,3.646,0,0,0,35.871,42.9H31.932A3.646,3.646,0,0,0,28.3,46.532h0A3.646,3.646,0,0,0,31.932,50.164Z" transform="translate(12.393 716.257)"/>
    <path id="Path_223" data-name="Path 223" class="cls-2" d="M31.932,72.564h3.939A3.646,3.646,0,0,0,39.5,68.932h0A3.646,3.646,0,0,0,35.871,65.3H31.932A3.646,3.646,0,0,0,28.3,68.932h0A3.646,3.646,0,0,0,31.932,72.564Z" transform="translate(12.393 705.316)"/>
    <path id="Path_224" data-name="Path 224" class="cls-2" d="M31.932,94.864h3.939A3.646,3.646,0,0,0,39.5,91.232h0A3.646,3.646,0,0,0,35.871,87.6H31.932A3.646,3.646,0,0,0,28.3,91.232h0A3.646,3.646,0,0,0,31.932,94.864Z" transform="translate(12.393 694.424)"/>
  </g>
</svg>
