<svg id="SALARY_ICON" data-name="SALARY ICON" xmlns="http://www.w3.org/2000/svg" viewBox="0 0 73.067 73.067">
  <defs>
    <style>
      .cls-1 {
        fill: #2699fb;
      }

      .cls-2 {
        fill: none;
      }
    </style>
  </defs>
  <g id="SALARIES1">
    <path id="Path_147" data-name="Path 147" class="cls-1" d="M36.533,0A36.533,36.533,0,1,0,73.067,36.533,36.457,36.457,0,0,0,36.533,0Zm0,68.5A32.011,32.011,0,1,1,68.59,36.533,32,32,0,0,1,36.533,68.5Z"/>
  </g>
  <g id="SALARIES2">
    <path id="Path_148" data-name="Path 148" class="cls-2" d="M47.279,49.464v.179A5.42,5.42,0,0,0,47.1,48.3,4.537,4.537,0,0,1,47.279,49.464Z" transform="translate(-4.925 -5.051)"/>
    <path id="Path_149" data-name="Path 149" class="cls-1" d="M52.9,46.415a8.635,8.635,0,0,1-3.313,7.253c-2.239,1.7-5.373,2.418-8.686,2.6H39.108a12,12,0,0,1-1.791-.09,50.85,50.85,0,0,1-11.73-2.6V47.042a71.557,71.557,0,0,0,11.73,2.328,12.612,12.612,0,0,0,1.791.09H40.9a5.909,5.909,0,0,0,3.4-.985,1.618,1.618,0,0,0,.627-1.7V46.5a5.285,5.285,0,0,0-.179-1.254c-.358-1.343-1.343-2.239-3.94-3.134-.537-.179-1.164-.448-1.791-.627-.269-.09-.537-.179-.9-.269-.269-.09-.537-.179-.9-.269-5.014-1.522-12.178-4.3-11.73-12,.179-3.134,2.059-5.283,4.567-6.984A13.4,13.4,0,0,1,37.228,20h1.791c.627,0,1.164.09,1.791.09a54.816,54.816,0,0,1,11.461,2.418L49.226,28.6a43.247,43.247,0,0,0-8.417-1.88,12,12,0,0,0-1.791-.09H37.228a7,7,0,0,0-3.4.9,2.332,2.332,0,0,0-.985,2.149v1.075c.358,1.164,1.522,1.97,4.3,2.865.537.179,1.164.358,1.791.537.358.09.627.179.985.269l.806.269C46.092,36.476,52.719,38.8,52.9,46.415Z" transform="translate(-2.664 -2.092)"/>
    <path id="Path_150" data-name="Path 150" class="cls-1" d="M47.279,49.464v.179A5.42,5.42,0,0,0,47.1,48.3,4.537,4.537,0,0,1,47.279,49.464Z" transform="translate(-4.925 -5.051)"/>
    <path id="Path_151" data-name="Path 151" class="cls-1" d="M42.282,28.59v6.447c-.269-.09-.537-.09-.806-.179-.358-.09-.716-.179-.985-.269-.627-.179-1.254-.269-1.791-.448V28.5h1.791A12,12,0,0,1,42.282,28.59Z" transform="translate(-4.047 -2.98)"/>
    <path id="Path_152" data-name="Path 152" class="cls-1" d="M42.282,45.6v5.82H40.491a12.612,12.612,0,0,1-1.791-.09V44.7a3.941,3.941,0,0,0,.9.179,3.941,3.941,0,0,0,.9.179C41.207,45.237,41.744,45.416,42.282,45.6Z" transform="translate(-4.047 -4.675)"/>
    <path id="Path_153" data-name="Path 153" class="cls-1" d="M42.282,14.8v4.029a12,12,0,0,0-1.791-.09H38.7V14.8h3.582Z" transform="translate(-4.047 -1.548)"/>
    <path id="Path_154" data-name="Path 154" class="cls-1" d="M42.282,61.5v4.925H38.7V61.5c.627,0,1.164.09,1.791.09h.269A8.193,8.193,0,0,1,42.282,61.5Z" transform="translate(-4.047 -6.431)"/>
  </g>
</svg>
