<svg xmlns="http://www.w3.org/2000/svg" viewBox="0 0 26.1 26.1">
  <defs>
    <style>
      .cls-1 {
        fill: #2699fb;
      }
    </style>
  </defs>
  <path id="Path_230" data-name="Path 230" class="cls-1" d="M26.1,23.8l-5.417-5.417a11.239,11.239,0,0,0,2.3-6.894A11.42,11.42,0,0,0,11.491,0,11.42,11.42,0,0,0,0,11.491,11.42,11.42,0,0,0,11.491,22.981a11.239,11.239,0,0,0,6.894-2.3L23.8,26.1ZM3.283,11.491a8.128,8.128,0,0,1,8.208-8.208A8.128,8.128,0,0,1,19.7,11.491,8.128,8.128,0,0,1,11.491,19.7,8.128,8.128,0,0,1,3.283,11.491Z"/>
</svg>
