<svg xmlns="http://www.w3.org/2000/svg" viewBox="0 0 26.6 28">
  <defs>
    <style>
      .cls-1 {
        fill: #2699fb;
        fill-rule: evenodd;
      }
    </style>
  </defs>
  <g id="SETTING" transform="translate(-72.3 -114)">
    <path id="Path_104" data-name="Path 104" class="cls-1" d="M273.125,17.5a3.5,3.5,0,1,0-3.5-3.5A3.51,3.51,0,0,0,273.125,17.5ZM265.95,6.3a9.87,9.87,0,0,1,4.2-2.275L271.55,0h3.5l1.4,4.025a12.22,12.22,0,0,1,4.2,2.275l4.2-.875,1.75,3.15-2.8,3.15A9.979,9.979,0,0,1,283.975,14c0,.7-.175,1.575-.175,2.275l2.8,3.15-1.75,3.15-4.2-.875a9.869,9.869,0,0,1-4.2,2.275L275.05,28h-3.5l-1.4-4.025a12.221,12.221,0,0,1-4.2-2.275l-4.2.875L260,19.425l2.8-3.15A9.976,9.976,0,0,1,262.625,14c0-.7.175-1.575.175-2.275L260,8.575l1.75-3.15Z" transform="translate(-187.7 114)"/>
  </g>
</svg>
