<svg xmlns="http://www.w3.org/2000/svg" viewBox="0 0 86.017 50.8">
  <defs>
    <style>
      .cls-1 {
        fill: none;
      }

      .cls-2 {
        fill: #2699fb;
      }
    </style>
  </defs>
  <g id="EMPLOYEES_ICON" data-name="EMPLOYEES ICON" transform="translate(-23.885 -120.2)">
    <path id="Path_114" data-name="Path 114" class="cls-1" d="M83.076,20.3H83l.076.076Z" transform="translate(3.613 115.246)"/>
    <path id="Path_115" data-name="Path 115" class="cls-1" d="M83.051,19.409c.3,4.611,3.326,8.164,6.955,8.164,3.7,0,6.728-3.629,6.955-8.164v-.151l.076-.076h-.983V15.629s-.6-1.588-1.588-1.436a1.91,1.91,0,0,0-1.058.68,3.532,3.532,0,0,1-1.814.983,11.278,11.278,0,0,1-1.587.151H89.93a11.278,11.278,0,0,1-1.587-.151,3.252,3.252,0,0,1-1.814-.983,1.565,1.565,0,0,0-1.058-.68c-1.058-.227-1.587,1.436-1.587,1.436v3.553H82.9l.076.076A.264.264,0,0,1,83.051,19.409Z" transform="translate(3.638 116.741)"/>
    <path id="Path_116" data-name="Path 116" class="cls-1" d="M42.151,16.3c.378,6.5,4.687,11.642,9.9,11.642s9.525-5.14,9.9-11.642v-.227l.151-.151H60.748V10.932s-.832-2.268-2.268-2.041a2.982,2.982,0,0,0-1.512.983A5.331,5.331,0,0,1,54.4,11.31a11.538,11.538,0,0,1-2.268.227h-.151a11.538,11.538,0,0,1-2.268-.227,4.353,4.353,0,0,1-2.57-1.436,2.714,2.714,0,0,0-1.512-.983c-1.436-.3-2.268,2.041-2.268,2.041v4.989H42l.151.151Z" transform="translate(13.619 118.037)"/>
    <path id="Path_117" data-name="Path 117" class="cls-2" d="M51.688,26.836c5.972,0,10.886-6.048,11.037-13.456V13a13.343,13.343,0,0,0-3.251-8.845,11.309,11.309,0,0,0-.832-.983L58.265,2.8a9.527,9.527,0,0,0-2.343-1.663,3.685,3.685,0,0,0-.529-.227,1.581,1.581,0,0,0-.454-.3,9.449,9.449,0,0,0-6.652,0c-.151.076-.378.151-.529.227-.3.151-.6.3-.983.529a1.356,1.356,0,0,0-.529.378l-.907.68c-.151.151-.3.227-.454.378l-.454.454a8.007,8.007,0,0,0-.756.907c-.151.151-.227.3-.378.454h0a2.652,2.652,0,0,0-.378.6h0c-.076.076-.076.151-.151.151-.076.151-.151.227-.227.378a.573.573,0,0,0-.151.3c-.076.151-.227.378-.3.529a1.652,1.652,0,0,1-.227.378,12.342,12.342,0,0,0-1.361,5.9v.378C40.8,20.789,45.716,26.836,51.688,26.836ZM61.667,13.38h.151l-.151.151Zm-19.882,0v.151l-.151-.151Zm1.21.454V8.845s.832-2.268,2.268-2.041a2.982,2.982,0,0,1,1.512.983,5.331,5.331,0,0,0,2.57,1.436,11.538,11.538,0,0,0,2.268.227h.151a11.538,11.538,0,0,0,2.268-.227A4.353,4.353,0,0,0,56.6,7.786,2.714,2.714,0,0,1,58.114,6.8c1.436-.3,2.268,2.041,2.268,2.041v4.989h1.361l-.151.151v.227c-.378,6.5-4.687,11.642-9.9,11.642s-9.525-5.14-9.9-11.642v-.227l-.151-.151Z" transform="translate(13.985 120.2)"/>
    <path id="Path_118" data-name="Path 118" class="cls-2" d="M42.151,17.7H42l.151.151Z" transform="translate(13.619 115.88)"/>
    <path id="Path_119" data-name="Path 119" class="cls-2" d="M68.5,17.7v.151l.151-.151Z" transform="translate(7.152 115.88)"/>
    <path id="Path_120" data-name="Path 120" class="cls-2" d="M70.989,49.717a6.11,6.11,0,0,1-.076,1.21c-.529,4.158-5.14,6.35-10.81,7.484a68.332,68.332,0,0,1-8.013.907H43.7c-1.058-.076-2.117-.151-3.1-.227-.227,0-.454-.076-.68-.076l-2.041-.227c-.3-.076-.68-.076-.983-.151-.378-.076-.832-.151-1.21-.227-5.443-1.058-9.9-3.1-10.735-7.03-.076-.227-.076-.529-.151-.756v-.907c.378-7.786,4.838-11.49,8.467-13.3a.264.264,0,0,0,.151-.076A16.293,16.293,0,0,1,38.1,34.9c3.931,10.054,8.24,12.7,8.24,12.7V41.552l-1.739-2.495h6.5l-1.739,2.495V47.6s4.309-2.646,8.24-12.7a16.977,16.977,0,0,1,4.309,1.285C65.7,37.848,70.611,41.552,70.989,49.717Z" transform="translate(17.817 111.683)"/>
    <path id="Path_121" data-name="Path 121" class="cls-2" d="M89.786,26.723c4.233,0,7.711-4.233,7.786-9.525v-.227a9.418,9.418,0,0,0-2.268-6.2c-.227-.227-.378-.454-.6-.68l-.3-.3A10.323,10.323,0,0,0,92.81,8.656c-.151-.076-.227-.151-.378-.151-.151-.076-.227-.076-.378-.151a6.281,6.281,0,0,0-4.687,0c-.151.076-.227.076-.378.151a3.064,3.064,0,0,0-.68.378,1.652,1.652,0,0,0-.378.227,4.193,4.193,0,0,0-.6.454c-.076.076-.227.151-.3.3l-.3.3c-.227.227-.378.454-.529.6-.076.076-.151.227-.227.3h0c-.076.151-.227.3-.3.454h0c0,.076-.076.076-.076.151-.076.076-.076.151-.151.227s-.076.151-.151.227c-.076.151-.151.227-.227.378-.076.076-.076.227-.151.3A9.327,9.327,0,0,0,82,16.971V17.2C82.076,22.49,85.553,26.723,89.786,26.723Zm7.03-9.449h.076l-.076.076Zm-13.985,0v.076l-.076-.076Zm.832.3V14.023s.6-1.588,1.587-1.436a1.91,1.91,0,0,1,1.058.68,3.533,3.533,0,0,0,1.814.983,11.278,11.278,0,0,0,1.587.151h.076a11.278,11.278,0,0,0,1.588-.151,3.252,3.252,0,0,0,1.814-.983,1.565,1.565,0,0,1,1.058-.68c1.058-.227,1.588,1.436,1.588,1.436v3.553h.983l-.076.076V17.8c-.3,4.611-3.326,8.164-6.955,8.164-3.7,0-6.728-3.629-6.955-8.164v-.151l-.076-.076h.907Z" transform="translate(3.857 118.272)"/>
    <path id="Path_122" data-name="Path 122" class="cls-2" d="M101.6,20.3v.076l.076-.076Z" transform="translate(-0.926 115.246)"/>
    <path id="Path_123" data-name="Path 123" class="cls-2" d="M81.076,21.3H81l.076.076Z" transform="translate(4.101 115.002)"/>
    <path id="Path_124" data-name="Path 124" class="cls-2" d="M95.152,32.4c-2.8,7.106-5.821,9-5.821,9V37.163l1.21-1.814H85.93l1.21,1.814V41.4s-3.024-1.89-5.821-9A12.41,12.41,0,0,0,75.8,34.819c3.78,1.663,8.693,5.367,9.071,13.607a6.111,6.111,0,0,1-.076,1.21h6.426a46.447,46.447,0,0,0,5.67-.6c4.385-.832,7.786-2.646,7.635-6.123C104.148,33.458,95.152,32.4,95.152,32.4Z" transform="translate(5.37 112.293)"/>
    <path id="Path_125" data-name="Path 125" class="cls-1" d="M24.627,33.936c-1.134,2.646-4.309,2.948-4.309,2.948L18.2,40.891l-2.117-4.007s-3.326-.3-4.385-3.1l2.268-.227L13.817,32.5a6.958,6.958,0,0,0,4.309,1.512,6.634,6.634,0,0,0,4.082-1.361.234.234,0,0,0-.076.151v.983Z" transform="translate(21.014 112.268)"/>
    <path id="Path_126" data-name="Path 126" class="cls-1" d="M23.538,26.858a6.678,6.678,0,0,1-5.367,2.873c-3.1,0-5.745-2.343-6.8-5.745a6.093,6.093,0,0,1,0-2.268c5.443-.076,5.9-1.285,9.449-3.4s1.663,2.343,1.663,2.343h2.646A13.244,13.244,0,0,1,23.538,26.858Z" transform="translate(21.12 115.869)"/>
    <path id="Path_127" data-name="Path 127" class="cls-2" d="M37,22v.076L37.076,22Z" transform="translate(14.839 114.831)"/>
    <path id="Path_128" data-name="Path 128" class="cls-2" d="M18.376,22H18.3l.076.076Z" transform="translate(19.403 114.831)"/>
    <path id="Path_129" data-name="Path 129" class="cls-2" d="M26.463,28.187,23.591,16.848C22.608,5.055,7.716,5.206,6.96,16.47,6.2,26.221,4.238,28.187,4.238,28.187l3.855-.378C5.9,28.489-.675,30.984.081,38.77A4.613,4.613,0,0,0,2.953,42.4a16.1,16.1,0,0,0,3.931,1.21,43.654,43.654,0,0,0,7.257.529h3.1c-.076-.227-.076-.529-.151-.756v-.907c.378-7.786,4.838-11.49,8.467-13.3a12.828,12.828,0,0,0-2.495-1.058ZM12.4,17.83v.076l-.076-.076Zm5.065,13.078-2.117,4.007-2.117-4.007s-3.326-.3-4.385-3.1l2.268-.227-.151-1.058a6.958,6.958,0,0,0,4.309,1.512,6.634,6.634,0,0,0,4.082-1.361.234.234,0,0,0-.076.151v.983l2.495.151C20.642,30.606,17.467,30.908,17.467,30.908Zm3.326-6.426a6.678,6.678,0,0,1-5.367,2.873c-3.1,0-5.745-2.343-6.8-5.745a6.093,6.093,0,0,1,0-2.268c5.443-.076,5.9-1.285,9.449-3.4s1.663,2.343,1.663,2.343h2.646A13.244,13.244,0,0,1,20.794,24.483Z" transform="translate(23.864 118.245)"/>
  </g>
</svg>
