<svg xmlns="http://www.w3.org/2000/svg" viewBox="0 0 29 177.5">
  <defs>
    <style>
      .cls-1 {
        fill: none;
      }

      .cls-2 {
        fill: #2699fb;
      }
    </style>
  </defs>
  <g id="Help" transform="translate(-240.5 -538)">
    <rect id="Rectangle_481" data-name="Rectangle 481" class="cls-1" width="16" height="16" transform="translate(247 538)"/>
    <path id="Path_146" data-name="Path 146" class="cls-2" d="M14.5,0A14.5,14.5,0,1,0,29,14.5,14.543,14.543,0,0,0,14.5,0Zm-.145,24.07a2.03,2.03,0,1,1,2.03-2.03A1.982,1.982,0,0,1,14.355,24.07ZM18.27,12.76l-1.6,1.74a1.771,1.771,0,0,0-.58,1.305,1.763,1.763,0,0,1-1.74,1.74,1.675,1.675,0,0,1-1.74-1.74,3.236,3.236,0,0,1,1.16-2.61l1.3-1.595A3.291,3.291,0,0,0,16.1,9.57a1.521,1.521,0,0,0-1.6-1.6A1.706,1.706,0,0,0,12.76,9.28,1.893,1.893,0,0,1,11.02,10.3,1.521,1.521,0,0,1,9.425,8.7a1.577,1.577,0,0,1,.145-.725c.58-1.74,2.32-3.045,4.93-3.045,3.045,0,5.075,2.03,5.075,4.64A4.757,4.757,0,0,1,18.27,12.76Z" transform="translate(240.5 686.5)"/>
  </g>
</svg>
