<svg xmlns="http://www.w3.org/2000/svg" viewBox="0 0 29 26">
  <defs>
    <style>
      .cls-1 {
        fill: #2699fb;
      }
    </style>
  </defs>
  <g id="HOME" transform="translate(-17.32 -590.5)">
    <path id="Path_2" data-name="Path 2" class="cls-1" d="M28.759,13.263a1.244,1.244,0,0,1-.98.45,1.275,1.275,0,0,1-.821-.3l-2.6-2.152V23.673A2.438,2.438,0,0,1,21.923,26.1H17.471V18.518a1.983,1.983,0,0,0-1.987-1.977h-2.04a1.967,1.967,0,0,0-1.987,1.977V26.1H6.767a2.422,2.422,0,0,1-2.438-2.427V11.561l-2.2,1.852a1.275,1.275,0,0,1-.821.3,1.192,1.192,0,0,1-.954-.45,1.26,1.26,0,0,1,.132-1.777L4.329,8.233,13.576.425l.053-.05L13.656.35a.094.094,0,0,1,.053-.025c.026,0,.026-.025.053-.025.026-.025.053-.025.053-.05A.206.206,0,0,1,13.921.2c.053-.025.079-.025.132-.05h.026c.026,0,.053-.025.079-.025h.053c.026,0,.079-.025.106-.025h.265a.251.251,0,0,1,.132.025c.053,0,.079.025.132.025.053.025.079.025.132.05h0c.026.025.079.025.106.05h0a.364.364,0,0,1,.106.075l.053.05L24.36,7.983l4.213,3.528A1.212,1.212,0,0,1,28.759,13.263Z" transform="translate(17.27 590.4)"/>
  </g>
</svg>
