<svg xmlns="http://www.w3.org/2000/svg" viewBox="0 0 57.945 67.6">
  <defs>
    <style>
      .cls-1 {
        fill: #2699fb;
      }
    </style>
  </defs>
  <g id="LEAVE" transform="translate(-41.94 -634.4)">
    <path id="Path_205" data-name="Path 205" class="cls-1" d="M39.511,47.762V60.31a3.219,3.219,0,0,1-3.1,3.3H6.858a3.219,3.219,0,0,1-3.1-3.3V7.289a3.219,3.219,0,0,1,3.1-3.3H36.44a3.219,3.219,0,0,1,3.1,3.3V20.2a1.956,1.956,0,0,0,1.877,1.995h0A1.956,1.956,0,0,0,43.3,20.2V7.289A7.084,7.084,0,0,0,36.44,0H6.858A7.084,7.084,0,0,0,0,7.289V60.31A7.084,7.084,0,0,0,6.858,67.6H36.44A7.084,7.084,0,0,0,43.3,60.31V47.762a1.956,1.956,0,0,0-1.877-1.995h0A1.938,1.938,0,0,0,39.511,47.762Z" transform="translate(41.94 634.4)"/>
    <g id="Group_53" data-name="Group 53" transform="translate(66.473 658.756)">
      <g id="Group_52" data-name="Group 52">
        <path id="Path_206" data-name="Path 206" class="cls-1" d="M105.133,75.718c-.034.034-.034.1-.068.136a1.3,1.3,0,0,1-.307.444l-7.575,7.541a1.895,1.895,0,0,1-2.661,0,1.916,1.916,0,0,1,0-2.661l4.367-4.333H73.777a1.877,1.877,0,1,1,0-3.753H98.889l-4.367-4.367a1.882,1.882,0,0,1,2.661-2.661l7.575,7.575a1.3,1.3,0,0,1,.307.444c.034.034.034.1.068.136A1.662,1.662,0,0,1,105.133,75.718Z" transform="translate(-71.9 -65.525)"/>
      </g>
    </g>
  </g>
</svg>
