<svg xmlns="http://www.w3.org/2000/svg" viewBox="0 0 18.6 18.6">
  <defs>
    <style>
      .cls-1 {
        fill: #2699fb;
        fill-rule: evenodd;
      }
    </style>
  </defs>
  <g id="NOTIFI" transform="translate(-320 -235)">
    <path id="Path_131" data-name="Path 131" class="cls-1" d="M17.517,16.275H11.674a2.337,2.337,0,0,1-4.674,0H1.158a1.121,1.121,0,0,1-1.052-.814,1.237,1.237,0,0,1,.351-1.279,4.672,4.672,0,0,0,1.87-3.72V6.975a7.011,7.011,0,0,1,14.022,0v3.487a4.672,4.672,0,0,0,1.87,3.72,1.1,1.1,0,0,1,.351,1.279A1.121,1.121,0,0,1,17.517,16.275Z" transform="translate(319.938 235)"/>
  </g>
</svg>
