<svg xmlns="http://www.w3.org/2000/svg" viewBox="0 0 29.809 23.76">
  <defs>
    <style>
      .cls-1 {
        fill: #2699fb;
      }
    </style>
  </defs>
  <g id="STUDENTS" transform="translate(-84.665 -589.5)">
    <g id="Group_11" data-name="Group 11" transform="translate(84.665 589.5)">
      <g id="Group_9" data-name="Group 9" transform="translate(0 0)">
        <path id="Path_106" data-name="Path 106" class="cls-1" d="M111.738,180.8v.026a.741.741,0,0,1-.138-.009A.754.754,0,0,1,111.738,180.8Z" transform="translate(-101.991 -165.233)"/>
        <path id="Path_107" data-name="Path 107" class="cls-1" d="M16.795,167.957H1.055s-1.205.258-1.033-1.464l.861-5.511s.422-2.187,1.98-2.5a27.54,27.54,0,0,1,2.7-.689.39.39,0,0,1,.138.026c.1.034.164.138.232.215.095.095.181.2.276.293a6.77,6.77,0,0,0,.56.551,3.966,3.966,0,0,0,.542.4c.207.121.422.2.637.3a2.609,2.609,0,0,0,.852.146.741.741,0,0,0,.138-.009c.043,0,.095.009.138.009a2.223,2.223,0,0,0,.852-.146c.215-.1.431-.181.637-.3a3.965,3.965,0,0,0,.542-.4,6.75,6.75,0,0,0,.56-.551c.086-.095.181-.2.276-.293a.7.7,0,0,1,.232-.215.654.654,0,0,1,.138-.026,27.54,27.54,0,0,1,2.7.689c1.559.31,1.98,2.5,1.98,2.5l.861,5.511C18,168.215,16.795,167.957,16.795,167.957Z" transform="translate(-0.004 -144.21)"/>
        <path id="Path_108" data-name="Path 108" class="cls-1" d="M110.138,180.717c-.043,0-.095.009-.138.009V180.7A.754.754,0,0,0,110.138,180.717Z" transform="translate(-100.529 -165.142)"/>
        <path id="Path_109" data-name="Path 109" class="cls-1" d="M55.993,9.036s-.861,3.358-3.616,3.358a3.815,3.815,0,0,1-2.928-1.576A7.167,7.167,0,0,1,48.39,8.95a1.19,1.19,0,0,0-.155-.293c-.121-.129-.241-.095-.379-.146a.391.391,0,0,1-.181-.207,2.535,2.535,0,0,1-.164-.568,4.172,4.172,0,0,1-.086-1.386c.034-.215.138-.672.448-.586a.634.634,0,0,0,.121.034c.422.043-.069-1.989-.1-2.11,0,0-.344-1.98.775-2.067.551-.043,1.016-.387.947-.99a.109.109,0,0,1,.009-.052c.009-.009.017-.017.026-.017A7.587,7.587,0,0,1,51.154.116a5.369,5.369,0,0,1,3.341.4,5.5,5.5,0,0,1,1.972,1.722,2.112,2.112,0,0,1,.207,1.283,8.448,8.448,0,0,1-.353,2.067s-.086.258.344.258c.25,0,.353.319.387.508a2.707,2.707,0,0,1-.121,1.309,4,4,0,0,1-.241.6.216.216,0,0,1-.034.06.155.155,0,0,1-.077.052A1.571,1.571,0,0,0,55.993,9.036Z" transform="translate(-43.318 -0.014)"/>
      </g>
      <g id="Group_10" data-name="Group 10" transform="translate(13.841 0.821)">
        <path id="Path_110" data-name="Path 110" class="cls-1" d="M243,128.534a2.686,2.686,0,0,0,1.688-.534,2.793,2.793,0,0,1-.706.336A3.2,3.2,0,0,1,243,128.534Z" transform="translate(-235.918 -117.8)"/>
        <path id="Path_111" data-name="Path 111" class="cls-1" d="M161.067,19.262c-.129.077-.284.155-.31.3a.407.407,0,0,0,.189.362c.827.672,2.342.517,3.3.267a4.159,4.159,0,0,0,1.49-.577.351.351,0,0,1,.155-.043c.069,0,.121.052.181.086l.155.1a3.069,3.069,0,0,0,.508.25,3.174,3.174,0,0,0,2.075.052,4.527,4.527,0,0,0,.792-.4.745.745,0,0,1-.086.06,2.09,2.09,0,0,0,.276-.207,5.543,5.543,0,0,0,4.736.525s.861-.431,0-.861a4.584,4.584,0,0,1-1.619-1.946,4.281,4.281,0,0,1-.611-1.7c-.026-.387.009-.784.009-1.171a6.5,6.5,0,0,0-.241-1.722A4.128,4.128,0,0,0,169.049,9.7a4.6,4.6,0,0,0-4.693,1.335,5.276,5.276,0,0,0-.99,3.444,5.021,5.021,0,0,1-.7,2.893A4.422,4.422,0,0,1,161.067,19.262Z" transform="translate(-160.753 -9.545)"/>
        <path id="Path_112" data-name="Path 112" class="cls-1" d="M222.655,127.395c-.052-.034-.1-.06-.155-.095a2.7,2.7,0,0,0,1.765.594,2.927,2.927,0,0,1-1.1-.25A2.533,2.533,0,0,1,222.655,127.395Z" transform="translate(-217.183 -117.161)"/>
        <path id="Path_113" data-name="Path 113" class="cls-1" d="M194.933,163.493l-.861-5.511s-.422-2.187-1.98-2.5a27.544,27.544,0,0,0-2.7-.689.39.39,0,0,0-.138.026c-.1.034-.164.138-.232.215-.095.095-.181.2-.276.293-.181.189-.362.379-.56.551a3.967,3.967,0,0,1-.542.4c-.207.121-.422.2-.637.3a2.609,2.609,0,0,1-.852.146V156.7c-.043.009-.095.009-.138.017a.754.754,0,0,1-.138-.017v.026a2.224,2.224,0,0,1-.852-.146c-.215-.1-.431-.181-.637-.3a3.967,3.967,0,0,1-.542-.4,6.749,6.749,0,0,1-.56-.551c-.095-.095-.181-.2-.276-.293a.79.79,0,0,0-.232-.215.654.654,0,0,0-.138-.026,12.573,12.573,0,0,0-1.946.482c.456.129.87.258,1.042.293,1.559.31,1.98,2.5,1.98,2.5l.861,5.511c.086.861-.172,1.231-.456,1.378H193.9S195.105,165.215,194.933,163.493Z" transform="translate(-178.983 -142.289)"/>
      </g>
    </g>
  </g>
</svg>
