<svg xmlns="http://www.w3.org/2000/svg" viewBox="0 0 77.666 67.516">
  <defs>
    <style>
      .cls-1 {
        fill: #2699fb;
      }

      .cls-2 {
        fill: none;
      }
    </style>
  </defs>
  <g id="TIME_TABLES" data-name="TIME TABLES" transform="translate(11.556 -3.11)">
    <path id="Path_183" data-name="Path 183" class="cls-1" d="M57.458,33.178l-6.082,7.15v.288A2.943,2.943,0,0,1,50.1,43.04l-.247,7.109a1.438,1.438,0,0,1-2.877,0l-.329-7.232a2.959,2.959,0,0,1,1.808-5.3c.205,0,.411.041.575.041h0l6.657-6.287a1.191,1.191,0,0,1,1.726,0A1.254,1.254,0,0,1,57.458,33.178Z" transform="translate(-38.358 -15.11)"/>
    <path id="Path_184" data-name="Path 184" class="cls-2" d="M57.458,33.178l-6.082,7.15v.288A2.943,2.943,0,0,1,50.1,43.04l-.247,7.109a1.438,1.438,0,0,1-2.877,0l-.329-7.232a2.959,2.959,0,0,1,1.808-5.3c.205,0,.411.041.575.041h0l6.657-6.287a1.191,1.191,0,0,1,1.726,0A1.254,1.254,0,0,1,57.458,33.178Z" transform="translate(-38.358 -15.11)"/>
    <path id="Path_185" data-name="Path 185" class="cls-1" d="M119.683,52.02a2.281,2.281,0,0,0,0-4.52H111.3a23.419,23.419,0,0,1,.452,4.52Z" transform="translate(-77.119 -24.83)"/>
    <path id="Path_186" data-name="Path 186" class="cls-1" d="M89.78,47.5H86.985a2.572,2.572,0,0,0-1.726.657,2.145,2.145,0,0,0-.7,1.6,2.346,2.346,0,0,0,2.424,2.26H89.78a4.411,4.411,0,0,1,4.561,4.233V86.662a4.411,4.411,0,0,1-4.561,4.233H45.358a6.969,6.969,0,0,1-.9-.164,5.063,5.063,0,0,1-1.562-.781,4.278,4.278,0,0,1-1.274-1.562,4.835,4.835,0,0,1-.288-.822,3.077,3.077,0,0,1-.082-.863V73.676A21.571,21.571,0,0,1,36.4,72.115V86.7c0,4.849,4.191,8.753,9.369,8.753H89.739c5.178,0,9.369-3.945,9.369-8.753V56.294C99.149,51.445,94.957,47.5,89.78,47.5Z" transform="translate(-32.998 -24.83)"/>
    <path id="Path_187" data-name="Path 187" class="cls-1" d="M140.927,50.013h0a.567.567,0,0,1,.164.123h0c.082.041.123.082.205.082.123.041.288.082.411.123a1.686,1.686,0,0,0,.452.041,2.335,2.335,0,0,0,1.356-.452c.082-.082.164-.123.247-.205a1.089,1.089,0,0,0,.205-.247,2.155,2.155,0,0,0,.452-1.356V38.26a2.26,2.26,0,1,0-4.52,0v9.986A2.546,2.546,0,0,0,140.927,50.013Z" transform="translate(-93.967 -18.055)"/>
    <path id="Path_188" data-name="Path 188" class="cls-1" d="M142.916,86.935h3.164A2.929,2.929,0,0,0,149,84.018h0A2.929,2.929,0,0,0,146.08,81.1h-3.164A2.929,2.929,0,0,0,140,84.018h0A2.877,2.877,0,0,0,142.916,86.935Z" transform="translate(-94.024 -44.623)"/>
    <path id="Path_189" data-name="Path 189" class="cls-1" d="M142.916,109.335h3.164A2.929,2.929,0,0,0,149,106.418h0a2.929,2.929,0,0,0-2.918-2.918h-3.164A2.929,2.929,0,0,0,140,106.418h0A2.877,2.877,0,0,0,142.916,109.335Z" transform="translate(-94.024 -57.818)"/>
    <path id="Path_190" data-name="Path 190" class="cls-1" d="M142.916,131.635h3.164A2.929,2.929,0,0,0,149,128.718h0a2.929,2.929,0,0,0-2.918-2.918h-3.164A2.929,2.929,0,0,0,140,128.718h0A2.877,2.877,0,0,0,142.916,131.635Z" transform="translate(-94.024 -70.954)"/>
    <path id="Path_191" data-name="Path 191" class="cls-1" d="M104.718,86.935h3.164a2.929,2.929,0,0,0,2.918-2.918h0a2.929,2.929,0,0,0-2.918-2.918h-3.164a2.929,2.929,0,0,0-2.918,2.918h0A2.929,2.929,0,0,0,104.718,86.935Z" transform="translate(-71.523 -44.623)"/>
    <path id="Path_192" data-name="Path 192" class="cls-1" d="M104.718,109.335h3.164a2.929,2.929,0,0,0,2.918-2.918h0a2.929,2.929,0,0,0-2.918-2.918h-3.164a2.929,2.929,0,0,0-2.918,2.918h0A2.929,2.929,0,0,0,104.718,109.335Z" transform="translate(-71.523 -57.818)"/>
    <path id="Path_193" data-name="Path 193" class="cls-1" d="M104.718,131.635h3.164a2.929,2.929,0,0,0,2.918-2.918h0a2.929,2.929,0,0,0-2.918-2.918h-3.164a2.929,2.929,0,0,0-2.918,2.918h0A2.929,2.929,0,0,0,104.718,131.635Z" transform="translate(-71.523 -70.954)"/>
    <path id="Path_194" data-name="Path 194" class="cls-1" d="M67.516,131.635H70.68a2.929,2.929,0,0,0,2.918-2.918h0A2.929,2.929,0,0,0,70.68,125.8H67.516a2.929,2.929,0,0,0-2.918,2.918h0A2.877,2.877,0,0,0,67.516,131.635Z" transform="translate(-49.608 -70.954)"/>
    <g id="Group_39" data-name="Group 39" transform="translate(-11.556 3.11)">
      <path id="Path_195" data-name="Path 195" class="cls-1" d="M43.969,21.926A21.956,21.956,0,0,1,33.491,40.664a22.29,22.29,0,0,1-1.972,1.068,20.837,20.837,0,0,1-5.876,1.849c-.575.123-1.192.164-1.808.247-.616.041-1.233.082-1.89.082A21.991,21.991,0,0,1,2.835,11.118h0A6.212,6.212,0,0,0,.657,8.324c-1.4-.781,0-1.644,0-1.644a35.94,35.94,0,0,1,7.89-2.137c1.685-.164,3.041.082,3.37,1.11A.774.774,0,0,1,12,5.982c0,.082.041.164.041.247h0A9.982,9.982,0,0,1,12.2,7.461c.288,4.274-.945,12.122-2.26,9.862a6.614,6.614,0,0,0-3.616-3.205,17.213,17.213,0,0,0-1.849,7.808A17.485,17.485,0,1,0,21.985,4.461h-.657a36.192,36.192,0,0,0-8.136.575c0-.041-.041-.123-.041-.164-.329-1.027-1.726-1.233-3.37-1.11C13.478.886,16.93-.1,22.026-.1A22.063,22.063,0,0,1,43.969,21.926Z" transform="translate(0 0.1)"/>
      <path id="Path_196" data-name="Path 196" class="cls-1" d="M71.1,103.4h-.616c-.411.247-.822.452-1.233.657a13.852,13.852,0,0,1-3.7,1.151,5.1,5.1,0,0,1-1.11.123,1.267,1.267,0,0,0-.041.411v1.11a2.385,2.385,0,0,0,2.383,2.383h4.274a2.385,2.385,0,0,0,2.383-2.383v-1.11A2.315,2.315,0,0,0,71.1,103.4Z" transform="translate(-37.936 -60.869)"/>
    </g>
  </g>
</svg>
